<svg xmlns="http://www.w3.org/2000/svg" viewBox="0 0 720 520" role="img" aria-labelledby="heroIllustrationTitle">
  <title id="heroIllustrationTitle">Dashboard illustration</title>
  <defs>
    <linearGradient id="bg" x1="0" x2="1" y1="0" y2="1">
      <stop offset="0%" stop-color="#7c3aed" stop-opacity="0.9"/>
      <stop offset="100%" stop-color="#2563eb" stop-opacity="0.7"/>
    </linearGradient>
    <linearGradient id="panel" x1="0" x2="1" y1="0" y2="1">
      <stop offset="0%" stop-color="#eef2ff"/>
      <stop offset="100%" stop-color="#ffffff"/>
    </linearGradient>
  </defs>
  <rect x="0" y="24" width="720" height="472" rx="36" fill="url(#bg)" opacity="0.95"/>
  <circle cx="146" cy="120" r="70" fill="#ffffff" opacity="0.14"/>
  <rect x="88" y="188" width="192" height="142" rx="24" fill="#ffffff" opacity="0.18"/>
  <rect x="320" y="220" width="276" height="102" rx="20" fill="url(#panel)"/>
  <rect x="320" y="340" width="276" height="96" rx="20" fill="url(#panel)"/>
  <rect x="110" y="220" width="170" height="40" rx="12" fill="#4338ca"/>
  <rect x="110" y="280" width="110" height="22" rx="10" fill="#c7d2fe"/>
  <rect x="110" y="318" width="150" height="22" rx="10" fill="#c7d2fe"/>
  <rect x="110" y="356" width="100" height="22" rx="10" fill="#c7d2fe"/>
  <rect x="348" y="250" width="82" height="18" rx="8" fill="#4338ca"/>
  <rect x="348" y="286" width="210" height="16" rx="8" fill="#c7d2fe"/>
  <rect x="348" y="316" width="150" height="16" rx="8" fill="#c7d2fe"/>
  <rect x="348" y="352" width="116" height="16" rx="8" fill="#c7d2fe"/>
  <rect x="348" y="394" width="86" height="18" rx="8" fill="#4338ca"/>
  <circle cx="394" cy="200" r="10" fill="#7c3aed"/>
  <rect x="110" y="98" width="380" height="24" rx="12" fill="#ffffff" opacity="0.35"/>
  <rect x="110" y="138" width="220" height="18" rx="9" fill="#ffffff" opacity="0.25"/>
  <path d="M168 108h12v12h-12zM190 108h12v12h-12zM212 108h12v12h-12z" fill="#e0e7ff"/>
  <circle cx="602" cy="122" r="24" fill="#ffffff" opacity="0.22"/>
  <path d="M580 120h32v4h-32zM594 110v20" stroke="#ffffff" stroke-width="3" stroke-linecap="round"/>
</svg>